<mxfile host="app.diagrams.net" modified="2022-02-24T00:34:39.846Z" agent="5.0 (X11; Linux x86_64) AppleWebKit/537.36 (KHTML, like Gecko) Chrome/98.0.4758.102 Safari/537.36" etag="BVziRk6OnlAnO9P2xwYj" version="16.6.2" type="github">
  <diagram id="o12luJb1gnpFv0w0I3FG" name="Page-1">
    <mxGraphModel dx="1363" dy="805" grid="1" gridSize="10" guides="1" tooltips="1" connect="1" arrows="1" fold="1" page="1" pageScale="1" pageWidth="827" pageHeight="1169" math="0" shadow="0">
      <root>
        <mxCell id="0" />
        <mxCell id="1" parent="0" />
      </root>
    </mxGraphModel>
  </diagram>
</mxfile>
